<svg xmlns="http://www.w3.org/2000/svg" viewBox="0 0 105.69 152.34"><defs><style>.a{fill:#00b0ff;}</style></defs><path class="a" d="M93.65,117a41.27,41.27,0,0,0,4.83-52.46A41.21,41.21,0,0,0,35.36,12.05L12.05,35.37A41.27,41.27,0,0,0,7.21,87.83a41.21,41.21,0,0,0,63.12,52.45Zm-35,11.66a24.73,24.73,0,0,1-35-35L47,70.34a24.74,24.74,0,0,1,23.17-6.57l8.34-8.35a22.48,22.48,0,0,0,3.69-4.8,41.29,41.29,0,0,0-46.86,8.06L18.88,75.17A24.78,24.78,0,0,1,23.7,47L47,23.71a24.73,24.73,0,0,1,35,35L58.68,82A24.76,24.76,0,0,1,35.5,88.57l-8.35,8.35a27.15,27.15,0,0,0-3.8,4.74,41.28,41.28,0,0,0,47-8L86.82,77.17A24.78,24.78,0,0,1,82,105.31Z"/></svg>